# xmcd
#
# Track frame offsets:
#	150
#	15186
#	37534
#	52921
#	66159
#	86505
#	98173
#	109426
#	124329
#	142853
#	159002
#	174587
#	192801
#	206225
#
# Disc length: 2981 seconds
#
# Revision: 2
# Processed by: cddbd v1.5.1PL2 Copyright (c) Steve Scherf et al.
# Submitted via: EasyCDDAExtractor 9.0.0.1
#
DISCID=aa0ba30e
DTITLE=Eric Clapton - Me And Mr. Johnson
DYEAR=2004
DGENRE=Blues
TTITLE0=When You Got A Good Friend
TTITLE1=Little Queen Of Spades
TTITLE2=They're Red Hot
TTITLE3=Me And The Devil Blues
TTITLE4=Traveling Riverside Blues
TTITLE5=Last Fair Deal Gone Down
TTITLE6=Stop Breakin' Down Blues
TTITLE7=Milkcow's Calf Blues
TTITLE8=Kind Hearted Woman Blues
TTITLE9=Come On In My Kitchen
TTITLE10=If I Had  Possession Over Judgement Day
TTITLE11=Love In Vain
TTITLE12=32-20 Blues
TTITLE13=Hell Hound On My Trail
EXTD=by picca_one
EXTT0=
EXTT1=
EXTT2=
EXTT3=
EXTT4=
EXTT5=
EXTT6=
EXTT7=
EXTT8=
EXTT9=
EXTT10=
EXTT11=
EXTT12=
EXTT13=
PLAYORDER=
